{
	"asset":{
		"generator":"Khronos glTF Blender I/O v4.2.57",
		"version":"2.0"
	},
	"extensionsUsed":[
		"KHR_materials_specular"
	],
	"scene":0,
	"scenes":[
		{
			"name":"Scene",
			"nodes":[
				3
			]
		}
	],
	"nodes":[
		{
			"name":"Bone",
			"rotation":[
				-1.1175872671742582e-08,
				1.7114270889351246e-08,
				-4.440892627896218e-16,
				1
			],
			"scale":[
				0.9999999403953552,
				0.9999999403953552,
				0.9999999403953552
			],
			"translation":[
				0,
				2.60770320892334e-08,
				1.4901161193847656e-08
			]
		},
		{
			"children":[
				0
			],
			"name":"handle",
			"rotation":[
				0.06970886141061783,
				0,
				0,
				0.9975674748420715
			],
			"scale":[
				8.414225578308105,
				8.414224624633789,
				8.414224624633789
			],
			"translation":[
				0.5293073654174805,
				-4.776972770690918,
				3.222381353378296
			]
		},
		{
			"children":[
				1
			],
			"mesh":0,
			"name":"Receiver_low",
			"translation":[
				0,
				-9.64200496673584,
				-11.497527122497559
			]
		},
		{
			"children":[
				2
			],
			"name":"Gun_01",
			"scale":[
				0.009999999776482582,
				0.009999999776482582,
				0.009999999776482582
			],
			"translation":[
				0,
				0.096420057117939,
				0.11497528105974197
			]
		}
	],
	"materials":[
		{
			"doubleSided":true,
			"extensions":{
				"KHR_materials_specular":{
					"specularTexture":{
						"index":0
					}
				}
			},
			"name":"Gun_01",
			"normalTexture":{
				"index":1,
				"scale":0.30000001192092896
			},
			"pbrMetallicRoughness":{
				"baseColorTexture":{
					"index":2
				}
			}
		}
	],
	"meshes":[
		{
			"name":"Mesh.017",
			"primitives":[
				{
					"attributes":{
						"POSITION":0,
						"NORMAL":1,
						"TEXCOORD_0":2
					},
					"indices":3,
					"material":0
				}
			]
		}
	],
	"textures":[
		{
			"sampler":0,
			"source":0
		},
		{
			"sampler":0,
			"source":1
		},
		{
			"sampler":0,
			"source":2
		}
	],
	"images":[
		{
			"mimeType":"image/jpeg",
			"name":"Gun_01_SPECULAR",
			"uri":"Gun_01_SPECULAR.jpg"
		},
		{
			"mimeType":"image/jpeg",
			"name":"Gun_01_NORMALS",
			"uri":"Gun_01_NORMALS.jpg"
		},
		{
			"mimeType":"image/jpeg",
			"name":"Gun_01_DIFFUSE",
			"uri":"Gun_01_DIFFUSE.jpg"
		}
	],
	"skins":[
		{
			"inverseBindMatrices":4,
			"joints":[
				0
			],
			"name":"handle"
		}
	],
	"accessors":[
		{
			"bufferView":0,
			"componentType":5126,
			"count":10094,
			"max":[
				2.5105466842651367,
				8.236084938049316,
				24.369651794433594
			],
			"min":[
				-1.4062426090240479,
				-8.050835609436035,
				-1.7437407970428467
			],
			"type":"VEC3"
		},
		{
			"bufferView":1,
			"componentType":5126,
			"count":10094,
			"type":"VEC3"
		},
		{
			"bufferView":2,
			"componentType":5126,
			"count":10094,
			"type":"VEC2"
		},
		{
			"bufferView":3,
			"componentType":5123,
			"count":21006,
			"type":"SCALAR"
		},
		{
			"bufferView":4,
			"componentType":5126,
			"count":1,
			"type":"MAT4"
		}
	],
	"bufferViews":[
		{
			"buffer":0,
			"byteLength":121128,
			"byteOffset":0,
			"target":34962
		},
		{
			"buffer":0,
			"byteLength":121128,
			"byteOffset":121128,
			"target":34962
		},
		{
			"buffer":0,
			"byteLength":80752,
			"byteOffset":242256,
			"target":34962
		},
		{
			"buffer":0,
			"byteLength":42012,
			"byteOffset":323008,
			"target":34963
		},
		{
			"buffer":0,
			"byteLength":64,
			"byteOffset":365020
		}
	],
	"samplers":[
		{
			"magFilter":9729,
			"minFilter":9987
		}
	],
	"buffers":[
		{
			"byteLength":365084,
			"uri":"1911Edit.bin"
		}
	]
}
